# xmcd
#
# Track frame offsets:
#	150
#	20201
#	48792
#	65206
#	89534
#	106823
#	120410
#	159645
#	179678
#	196538
#	217606
#
# Disc length: 3187 seconds
#
# Revision: 1
# Processed by: cddbd v1.5.2PL0 Copyright (c) Steve Scherf et al.
# Submitted via: audiograbber 1.83.01
#
DISCID=900c710b
DTITLE=Kammgarn - Various - International Blues Festival
DYEAR=2009
DGENRE=Blues
TTITLE0=Michael Hill - K-Town Cotton Club Blues
TTITLE1=Danny Bryant's Redeyeband - Any Wonder
TTITLE2=Vdelli - Manhole
TTITLE3=Making Blues - Brown Monkeys
TTITLE4=The Brew - The Joker
TTITLE5=Pete and the Boogiewolf - Roll'em Pete
TTITLE6=Mick Taylor - Blind Willie McTell
TTITLE7=Stan Webb's Chicken Shack - Burning Love
TTITLE8=Vdelli - Ain't Bringing Me Down
TTITLE9=The Brew - Lies
TTITLE10=Michael Hill - Mr. Humbert Sumlin
EXTD=
EXTT0=
EXTT1=
EXTT2=
EXTT3=
EXTT4=
EXTT5=
EXTT6=
EXTT7=
EXTT8=
EXTT9=
EXTT10=
PLAYORDER=
